# xmcd CD database file
#
# Track frame offsets:
#	150
#	40326
#	59825
#	80218
#	102743
#	126124
#	139851
#	162363
#	177990
#	199864
#	224065
#	244743
#	259770
#	277188
#	288975
#	309681
#	325878
#
# Disc length: 4577 seconds
#
# Revision: 0
# Processed by: cddbd v1.5.2PL0 Copyright (c) Steve Scherf et al.
# Submitted via: CDex 1.70beta2
#
DISCID=1f11df11
DTITLE=Louis Armstrong - All Stars 1954 - 1956 CD 1
DYEAR=1954
DGENRE=Jazz
TTITLE0=St. Louis Blues
TTITLE1=Yellow Dog Blues
TTITLE2=Loveless Love
TTITLE3=Aunt hagar's Blues
TTITLE4=Long Gone
TTITLE5=The Memphis Blues
TTITLE6=Beale Street Blues
TTITLE7=Ole Miss
TTITLE8=Chantez les bas
TTITLE9=Hesitating Blues
TTITLE10=Atlanta Blues
TTITLE11=When It's Sleepy Time Down South
TTITLE12=Indiana
TTITLE13=Whispering
TTITLE14=Bugle Blues - Old Miss
TTITLE15=Mack the Knife
TTITLE16=Mahogany Hall Stomp
EXTD=YEAR: 1954
EXTT0=
EXTT1=
EXTT2=
EXTT3=
EXTT4=
EXTT5=
EXTT6=
EXTT7=
EXTT8=
EXTT9=
EXTT10=
EXTT11=
EXTT12=
EXTT13=
EXTT14=
EXTT15=
EXTT16=
PLAYORDER=
